<?xml version="1.0" encoding="utf-8"?>
<!-- Generator: Adobe Illustrator 23.0.3, SVG Export Plug-In . SVG Version: 6.00 Build 0)  -->
<svg version="1.1" xmlns="http://www.w3.org/2000/svg" xmlns:xlink="http://www.w3.org/1999/xlink" x="0px" y="0px"
	 viewBox="0 0 882 300" style="enable-background:new 0 0 882 300;" xml:space="preserve">
<style type="text/css">
	.st0{fill:#C4C3C6;}
	.st1{fill:none;}
	.st2{fill:#FFFFFF;}
	.st3{fill-rule:evenodd;clip-rule:evenodd;fill:#C4C3C6;}
	.st4{fill-rule:evenodd;clip-rule:evenodd;fill:#FFFFFF;}
	.st5{fill-rule:evenodd;clip-rule:evenodd;}
	.st6{fill-rule:evenodd;clip-rule:evenodd;fill:#B1B2B7;}
	.st7{fill-rule:evenodd;clip-rule:evenodd;fill:#D8D8D8;stroke:#979797;}
	.st8{fill-rule:evenodd;clip-rule:evenodd;fill:#D8D8D8;}
	.st9{fill-rule:evenodd;clip-rule:evenodd;fill:#FFFFFF;stroke:#000000;stroke-width:0.96;}
	.st10{fill-rule:evenodd;clip-rule:evenodd;fill:#FFFFFF;stroke:#000000;}
	.st11{fill:#040404;}
	.st12{fill:#FEFEFE;}
	.st13{fill:#BFAF9F;}
	.st14{fill:#010101;}
	.st15{fill-rule:evenodd;clip-rule:evenodd;fill:#FDFDFD;}
	.st16{fill-rule:evenodd;clip-rule:evenodd;fill:#F9F9F9;}
	.st17{fill:#D8D8D8;}
</style>
<g id="Layer_4">
	<path d="M876,209H6c-3.3,0-6-2.7-6-6V6c0-3.3,2.7-6,6-6h870c3.3,0,6,2.7,6,6v197C882,206.3,879.3,209,876,209z"/>
	<g>
		<path class="st2" d="M64.1,67.4h12c3.3,0,5.8,0.7,7.4,2c1.6,1.4,2.5,3.5,2.5,6.4c0,2.1-0.4,3.7-1.1,4.9c-0.7,1.2-1.8,2.1-3.2,2.8
			c3.5,1.2,5.3,3.8,5.3,7.8c0,3.3-0.9,5.7-2.6,7.2c-1.8,1.4-4.3,2.2-7.6,2.2H64.1V67.4z M76,70.7h-8.2v11.5h8.5c2,0,3.5-0.5,4.5-1.5
			c0.9-1,1.4-2.4,1.4-4.4c0-2-0.5-3.4-1.5-4.3C79.7,71.1,78.1,70.7,76,70.7z M76.4,85.3h-8.6v12h8.8c2.2,0,3.8-0.5,5-1.4
			c1.1-0.9,1.7-2.5,1.7-4.8c0-1.2-0.2-2.2-0.7-3.1c-0.5-0.8-1.1-1.4-1.8-1.8C79.3,85.7,77.9,85.3,76.4,85.3z"/>
		<path class="st2" d="M92,88.6c0-4.4,0.8-7.6,2.4-9.5c1.6-2,4.2-2.9,7.9-2.9c3.7,0,6.4,1,7.9,2.9c1.6,2,2.3,5.1,2.3,9.5
			c0,4.4-0.7,7.6-2.2,9.6c-1.5,2-4.2,3-8.1,3c-3.9,0-6.6-1-8.1-3C92.7,96.1,92,92.9,92,88.6z M95.7,88.5c0,3.5,0.4,6,1.3,7.4
			c0.8,1.4,2.6,2.1,5.3,2.1s4.5-0.7,5.3-2.1c0.8-1.4,1.2-3.8,1.2-7.4s-0.5-5.9-1.4-7.3c-0.9-1.3-2.6-2-5.2-2c-2.5,0-4.2,0.7-5.2,2
			C96.1,82.6,95.7,85,95.7,88.5z"/>
		<path class="st2" d="M133.3,76.6h3.6v24h-3.6v-1.7c-2.4,1.4-4.8,2.2-7.1,2.2c-3.3,0-5.4-0.8-6.5-2.5c-1.1-1.7-1.6-4.8-1.6-9.4
			V76.6h3.6v12.5c0,3.5,0.3,5.8,0.9,7c0.6,1.2,2,1.8,4.1,1.8c1.1,0,2.1-0.2,3.2-0.5c1.1-0.3,1.9-0.6,2.5-0.9l0.9-0.4V76.6z"/>
		<path class="st2" d="M147.5,100.6h-3.6v-24h3.6v1.7c2.6-1.4,5.1-2.2,7.4-2.2c3.2,0,5.4,0.9,6.5,2.6c1.1,1.7,1.7,4.8,1.7,9.2v12.7
			h-3.6V88c0-3.3-0.3-5.6-1-6.8c-0.7-1.2-2.1-1.8-4.2-1.8c-1,0-2.1,0.2-3.2,0.5c-1.1,0.3-2,0.6-2.6,0.9l-0.9,0.4V100.6z"/>
		<path class="st2" d="M181.9,79.7h-7.6v11.5c0,2.8,0.2,4.6,0.6,5.4c0.4,0.9,1.4,1.3,2.9,1.3l4.3-0.3l0.2,3
			c-2.1,0.4-3.8,0.5-4.9,0.5c-2.5,0-4.2-0.6-5.2-1.8c-1-1.2-1.4-3.5-1.4-7V79.7h-3.4v-3.1h3.4v-7.3h3.6v7.3h7.6V79.7z"/>
		<path class="st2" d="M186.3,71.2V67h3.6v4.2H186.3z M186.3,100.6v-24h3.6v24H186.3z"/>
		<path class="st2" d="M213.2,97.6l1.4-0.1l0.1,2.8c-3.6,0.5-6.8,0.8-9.4,0.8c-3.5,0-5.9-1-7.3-3s-2.2-5.1-2.2-9.3
			c0-8.4,3.3-12.6,10-12.6c3.2,0,5.6,0.9,7.2,2.7c1.6,1.8,2.4,4.6,2.4,8.5l-0.2,2.7h-15.8c0,2.7,0.5,4.6,1.4,5.9
			c1,1.3,2.6,1.9,5,1.9C208.3,97.9,210.7,97.8,213.2,97.6z M211.9,87.2c0-2.9-0.5-5-1.4-6.2c-0.9-1.2-2.5-1.8-4.6-1.8
			c-2.1,0-3.7,0.6-4.8,1.9c-1.1,1.3-1.6,3.3-1.7,6.1H211.9z"/>
		<path class="st2" d="M228.6,79.3c-3.5,0-5.2,1.2-5.2,3.6c0,1.1,0.4,1.9,1.2,2.4c0.8,0.5,2.6,0.9,5.5,1.4c2.8,0.5,4.9,1.2,6,2.1
			c1.2,0.9,1.8,2.6,1.8,5c0,2.5-0.8,4.3-2.4,5.4s-3.9,1.7-6.9,1.7c-2,0-4.3-0.2-7-0.7l-1.4-0.2l0.2-3.1c3.6,0.5,6.4,0.8,8.3,0.8
			c1.9,0,3.3-0.3,4.2-0.9c1-0.6,1.5-1.6,1.5-3c0-1.4-0.4-2.3-1.2-2.8c-0.8-0.5-2.7-1-5.5-1.4c-2.8-0.4-4.8-1.1-6-2
			c-1.2-0.9-1.8-2.5-1.8-4.8c0-2.3,0.8-4.1,2.5-5.2c1.6-1.1,3.7-1.7,6.2-1.7c2,0,4.4,0.2,7.3,0.7l1.3,0.2l-0.1,3.1
			C233.5,79.6,230.7,79.3,228.6,79.3z"/>
	</g>
	<g id="Illustrations_5_">
		<g id="bounties-2" transform="translate(0.000000, -1.000000)">
			<g id="bounties">
				<path id="Path_16_" d="M686.1,158.8c-1.4-1.3-2.7-2.7-4-4.2c-1.5-2.3-2.9-4.7-4.5-6.9c-5.5-8.2-12.1-15.6-19.8-22
					c-2.4-1.9-4.9-3.7-7.5-5.3c3.4-1.8,3.7-4.4,0.8-6.6c-0.9-0.6-1.9-1.1-2.8-1.5c0.3-0.2,0.7-0.5,1-0.7c1.4-0.6,2.4-1.8,2.7-3.2
					c0.3-1.4-0.1-3-1.1-4c-0.4-0.5,0-0.7,0.2-1c3.2-3.7,6.7-7.1,10.5-10c3.4-3,8-4.3,12.4-3.7c2.5,0.3,5.1,0.1,7.5-0.8
					c4.2-1.1,7-5.2,6.4-9.5c-0.2-3.1-1-6.1-2.3-8.9c-1.6-3.9-5.2-6.7-9.4-7.2c-2.6-0.3-5.3-0.1-7.9,0.6c-4.4,1.1-9.1,0.2-12.6-2.6
					c-3.8-2.8-7-6.3-9.5-10.3c-2.6-4-6.1-7.2-10.3-9.5c-5.3-3.1-12-2.3-16.6,1.8c-4.2,4.1-8.2,8.5-11.9,13.2
					c-2.8,3.5-6.9,5.6-11.3,5.7c-2.3,0.1-4.7-0.6-6.6-1.9c-2.8-1.9-6.5-2.1-9.5-0.4c-2.2,1.1-4.3,2.4-6.2,4
					c-3.6,2.7-6.4,6.5-7.9,10.7c-1.1,2.6,0.1,5.6,2.8,6.8c4.5,2.3,9.2,4,13.8,5.9c3.6,1.5,7.2,3.2,10.8,4.9
					c4.8,2.3,6.6,7.2,10.3,10.7c-2.6,0.4-4.6,2.5-4.9,5.1c-0.4,3,1.8,4,4,5.3c-1.7,0.9-3.3,1.6-4,3.4c-0.4,1.7,0.1,3.5,1.1,4.9
					c-5.4,3-10.5,6.4-15.3,10.3c-10.1,8.2-19.2,17.7-26.9,28.1c-6.7,8.9-12,18.8-15.8,29.3c-4.5,11.6-6.3,24.1-5.4,36.5
					c0.5,7.7,3.2,15,7.6,21.3c3,3.7,6.8,6.7,11.1,8.8c1.2,0.6,2.4,1,3.6,1.5c23.4,11.7,50.2,14.4,75.5,7.5
					c22.9,5.2,47,0.4,66.3-13.1c0.8-0.6,1.5-1.2,2-2.1c0.7-0.6,1.3-1.3,1.9-2l0.9-1c0.1-0.2,0.2-0.3,0.3-0.4
					c4-5.3,6.7-11.4,7.9-17.9c1.3-8.1,0.8-16.4-1.6-24.3C707.3,186.9,698.4,171.5,686.1,158.8z"/>
				<path id="Shape_9_" class="st12" d="M543.1,216.9c0.1-13.2,4.2-26.2,11.9-37c6.1-9,13.3-17.1,21.6-24.1c0,0,0-0.2,0.4-0.5
					c-2,0.2-4,0.8-5.8,1.7c-1.9,0.9-3.7,1.9-5.5,3c1.4-2.4,3-4.7,4.8-6.9c4.2-5.4,17.8-22.4,25.3-23.4c2.1-0.3-9.7,17.9-5.3,19.8
					c3.1,1.3,20-19.4,21.1-19.8c2.4-0.8,7.2,6,6.9,8c-0.4,2.5-0.6,5.1-0.5,7.7c0,3,3.9,4.6,4.7,2.3c0.9-2,1.9-3.9,3-5.8
					c1.6-3.2,3.8-6.1,6.4-8.5c1.6-1.9,4.1-2.8,6.5-2.3c2,0.5,3.8,1.5,5.3,3c4.4,4.5,7.9,9.8,10.5,15.5c0.3,0.7,0.7,1.3,1.3,1.9
					c0.1-0.8,0.1-1.6,0-2.3c-0.4-3.6-0.1-7.3,1-10.8c0.6-2.2,1.3-2.4,3-0.8c2.2,2,4.2,4.1,6,6.3c0.4,0.7,1,1.2,1.7,1.6v0.4
					c-0.1-0.1-0.1-0.2-0.2-0.3c0-0.5-0.2-1-0.4-1.4c-1.8-3.6-4-7-6.5-10.1c0.1-0.3-0.6-0.5,0-1c5.3,5.1,10.2,10.8,14.4,16.9
					c1.2,1.5,2.2,3.1,3.1,4.7l-0.3,0.2c-2.5-1.2-4.8-2.7-7-4.5l-1-0.7l-0.2-0.2c-0.2,0,0,0.3,0,0.4c1.3,1.9,2.8,3.7,4.7,5.1
					c6.7,6,12.6,12.8,17.6,20.3c7.2,10.5,12.6,22.1,16.2,34.4c1.9,6.4,2.2,13.2,0.6,19.8c-1.5,6.2-5.5,11.6-10.9,14.9
					c0-0.4-36.6,7.8-36.2,7.5c2.7-2.7-15.9-10.3-54.7-8.6c-9.9,0.4,9.5,7.4,8.6,11.9c-0.7,3.5-20.4,4.3-25,4
					C586.5,258.5,541,256.8,543.1,216.9z M604.3,237c4.9,0-13.8-21.7-15.8-42.8c-2-21.1,6.9-38.2,2-38.2c-4.9,0-12.5,13.2-9.2,38.2
					C584.5,219.2,599.3,237,604.3,237z"/>
				<path d="M639.1,166.6h-25v8.7h15.3v35.3c0,2.8-1.8,5.3-4.4,6.3l-6.2,2.4l2.7,9.3l9.2-3.6c3.2-1.2,5.7-3.6,7.2-6.6
					c0.9-1.7,1.3-3.6,1.3-5.6V166.6z"/>
				<path class="st0" d="M613.3,75.5c3.5,6.4,4.9,13.7,4,21c0,0.2,0,0.4,0,0.6c-0.3,0.8-0.4,1.9-1.4,2.3s-1.8-0.4-2.5-1.1
					c-1.7-2-3.1-4.2-4.3-6.5c-3.5-6.3-6.9-12.7-10.1-19.2c-0.1-0.3-0.2-0.5-0.2-0.8c0.8,0,1.5,0.8,2.3,0l-2.9-1.9
					c-0.4-0.9-0.3-2,0.1-2.9s1.3-1.5,2.3-1.8c3.4-1,6.3-3.1,8.5-5.9c1.9-2.1,3.6-4.2,5.4-6.4c0.6-0.6,3.6-4.1,4-4.5
					c2.6-2.2,5.6-3.6,8.9-4.2c3.9-0.6,7.8,1.1,10,4.3c0.8,1,2.4,3.9,3.1,7.4c0.7,3.4,0.7,7.3,0.5,8.6c-0.1,2.3-2.7,16.3-3.7,19.1
					c-1.4,4.9-3.1,9.7-5.1,14.4c-0.6,1.7-1.5,3.3-2.7,4.7c-1.5,1.7-2.8,1.5-4-0.3c-1.3-2.4-2.2-4.9-2.7-7.6
					c-1.6-6.9-4.3-13.4-7.9-19.5c-1.6-2.5-3.6-4.8-5.8-6.8c-0.2,0-0.4-0.6-0.8-0.4C610.7,71.3,612.3,73.8,613.3,75.5z"/>
				<path class="st0" d="M660.9,67.1c1.3,0.5,1.9,2,1.4,3.3c-0.3,1-0.7,1.9-1.3,2.7c-0.6,0.8-1.1,1.5-1.7,2.3c0.4,0.4,0.5,0,0.8,0
					c3-1.8,5.7-4,8.7-6c0.4-0.4,0.9-0.6,1.5-0.6c3.5-0.2,6.6,2.1,7.5,5.5c0.1,0.2,0.2,0.3,0.4,0.4c0.8,0.3,1,1.1,1.3,1.7
					c1.1,2.1,0.4,4.6-1.6,5.8c-3.2-0.9-6.6-0.6-9.6,0.7c-0.4,0-0.6,0.4-1,0.3c-0.1-0.2-0.3-0.4-0.5-0.5c-0.2-0.1-0.5-0.1-0.8,0l0,0
					c-0.7-0.6-0.9,0-1.1,0.5c-0.2,0.5,0,0.9-0.2,1.4c-0.9,1.1-2.1,1.9-3.3,2.6c-0.5-1.1-0.5-1.1-1.5-0.2l0.5,0.2
					c0.2,0,0.4,0.2,0.4,0.5c-1,1.2-2.1,2.3-3.3,3.3c-3.2,3.4-6.5,6.8-9.8,10.1c-0.8,1.1-2,1.9-3.3,2.2c-1.5,0.3-1.9,0-1.5-1.6
					c0.6-2.2,1.5-4.2,2.6-6.1c0.7-1.6,1.6-3.1,2.6-4.5h0.4c0.6,0,1.5,0.6,1.6,0c0.2-0.6-1.1-0.3-1.5-0.8c1.1-2.4,2.7-4.6,4-6.9
					c0.2-0.4,0.6-0.7,0.6-1.3c-1.2,1.2-2.4,2.5-3.4,4c-2.2,2.6-4.3,5.4-6.4,7.9c-0.3,0.4-0.7,0.8-1.2,1.1c-0.8,0.6-1.3,0.6-1.6-0.5
					c0-0.2,0-0.4,0-0.7c1.4-6.6,3.7-13,6.9-19C649.7,69.7,655.2,66.4,660.9,67.1z M670,74.2c-1.3,0-1.9,1.3-2.9,1.9
					c-0.4,0-0.9,0.5-0.6,1.1c0.3,0.6,0.8,0,1.1,0c1.2-0.7,2.6-0.9,4-0.6c0.6,0,1.1-0.8,1.1-1.5c0-0.7-0.4-1-1.1-0.7
					c-0.5,0.2-1,0.2-1.5,0V74.2z M655.4,81.4c0.4,0.7,0.9,1.4,1.5,1.9c0.1-1,0.1-1-1.5-1.7V81.4z"/>
				<path class="st0" d="M586.6,65.1c3.2,0.8,6,2.8,7.9,5.6c5.2,7.4,8.9,15.7,11,24.5c0,0,0,0.4,0,0.6l-4-4c0.3,0,0.2-0.4,0-0.6
					c-3-3.8-6.6-7.1-10.6-9.7c-1.1-0.7-8.9-2.5-11.7-5.8c-0.4-0.4,0.2-1.5,0-2c-0.6-1.4-1.5-5.2-0.7-6.6c1.3-2.1,4.8-1.5,5.3-1.6
					L586.6,65.1z M596.6,80.3c0.4-0.1,0.8-0.2,1.2-0.3c0.4,0,0.6-0.5,0.4-0.9c-0.3-0.4-0.6-0.3-0.8,0c-0.2,0.3-0.9,0.6-1.3-0.2
					s-1.1-0.9-1.9-1.1s-0.8,0-0.7,0.6C594.4,79.2,595.5,79.9,596.6,80.3L596.6,80.3z M591.1,78c-0.3,0-0.6,0.2-0.4,0.4
					c0.2,0.2,0.6,1.4,1.4,1.6c0.8,0.2,0.4-0.4,0.4-0.7C592.5,78.9,591.7,78.2,591.1,78L591.1,78z M590.6,75.3c0.8,0.8,1.7,0.7,2.5,1
					C592.5,75.6,591.7,75,590.6,75.3L590.6,75.3z"/>
				<path class="st12" d="M660.9,67.1c-5.8-0.7-11.3,2.6-13.5,7.9c-3.1,5.9-5.4,12.3-6.7,18.8c0,0.2,0,0.4,0,0.7
					c-0.4-2.1-0.4-4.3,0-6.4c0.5-5.8,1.6-11.5,3.1-17.1c0.5-1.6,1.2-3.2,2.1-4.7c1.1-2.2,3.7-3.2,5.9-2.3c2.5,0.8,5,1.5,7.4,2.4
					C659.9,66.5,660.5,66.7,660.9,67.1L660.9,67.1z"/>
				<path class="st12" d="M586.6,65.1l-2.8,0.4c-1.7,0.2-3.3,1.2-4.2,2.6c-0.2,0.4-0.4,0.6,0,0.9c1.1,0.9,0.2,1.2-0.6,1.5l0,0
					c0-1-0.8-1.7-0.9-2.7l-0.7,0.8c-0.8,0.9-1.1,2.1-0.9,3.3c0.2,1.2,1,2.2,2,2.7c0.2,0,0.5,0.4,0.8,0c0.1-0.2,0.1-0.4,0-0.6
					c-0.4-0.8,0-1.3,0.3-2.1c0.6,0.9,1.8,1.6,1,3c-0.8,1.4,0.3,0.9,0.7,1.1c3.2,1.8,6.4,3.4,9.4,5.3c4,2.6,7.6,5.9,10.6,9.7
					c0,0.2,0.2,0.4,0,0.6c-5.8-5.1-12.5-9.1-19.8-11.9c-2.6-1.1-5.2-2.3-7.9-3.4c-1-0.4-1.7-1.3-2-2.3c-0.3-1,0-2.2,0.7-3
					c1.9-3.1,4.9-5.2,8.5-5.9C582.7,64.6,584.7,64.6,586.6,65.1z"/>
				<path class="st12" d="M677.8,82.3c2-1.2,2.7-3.8,1.6-5.8c-0.3-0.7-0.5-1.4-1.3-1.7c-0.2-0.1-0.3-0.2-0.4-0.4
					c-0.9-3.4-4.1-5.6-7.5-5.5c2.2-1.2,4.9-1.3,7.2-0.3c4.5,2.5,6.9,7.5,6.1,12.6c-0.2,1.4-1,2.7-2.2,3.6c-1.2,0.9-2.7,1.2-4.1,0.9
					c-2-0.3-4.1-0.4-6.1-0.4C673.2,84.1,675.5,83.1,677.8,82.3L677.8,82.3z"/>
				<path class="st0" d="M631.3,109.9c1.4,1.4,3,2.8,4.6,4c-2.8,1.2-6.1,0.3-7.9-2.2c1.1-2.1,1.1-2.1,2.9-1.7H631.3z"/>
				<path class="st0" d="M637.2,109.9l4,2.7c-1.6,0.8-3.5,0.8-5.2,0.2c-1.7-0.7-3-2-3.7-3.6c0,0,0,0,0-0.2c1-0.4,2.1-0.2,2.9,0.4
					C635.8,109.7,636.5,109.9,637.2,109.9z"/>
				<path class="st0" d="M620.2,111.9c1.3,1.5,2.8,2.8,4.4,4c0.2,0,0.6,0.3,0.5,0.6c-0.1,0.3-0.5,0.4-0.8,0.4
					c-2.2,0.6-4.5-0.1-6.1-1.7c-0.4-2.1-0.4-2,1.5-2.9C619.9,112.2,620,112,620.2,111.9z"/>
				<path class="st0" d="M625.6,111.1c1.4,1.3,2.8,2.5,4.4,3.6c0.4,0.2,0.7,0.6,0,0.9c-2.4,0.7-5-0.1-6.7-2.1
					C623.4,111.6,624,111.1,625.6,111.1z"/>
				<path class="st0" d="M611.5,116.3l3.6,1.5c-1.3,1.8-3.7,2.2-5.5,0.9c-0.6-0.5-1.2-1.1-1.9-1.7s0-1.1,0.9-1.1
					C609.6,116.1,610.6,116.2,611.5,116.3z"/>
				<path class="st0" d="M615.1,113.9c1.4,0.9,2.7,1.9,4,3c0,0,0.6,0.3,0.4,0.6c-0.2,0.3-0.4,0.3-0.7,0.4c-0.5,0.2-1.1,0.2-1.6,0
					c-1.2-0.3-2.4-0.7-3.5-1.3C613,114.4,613.2,114.1,615.1,113.9L615.1,113.9L615.1,113.9z"/>
				<path class="st0" d="M603.6,104.4c0.4,0,0.7,0.2,0.9,0.6c1,1.7,1.6,3.6,1.7,5.6c0,0.9,0,1-1.3,0.6l-0.4-0.3l0,0
					c0-0.3-0.2-0.5-0.3-0.8C603.2,108.4,602.9,106.3,603.6,104.4z"/>
				<path class="st0" d="M648.6,109.6c-2.2,0.4-4.4-0.7-5.5-2.7c-0.2-1.1,0.8-1.8,2.5-1.5c-0.8,1.4,0.2,1.8,1.2,2.2
					C647.8,107.9,648.6,108.4,648.6,109.6z"/>
				<path class="st0" d="M607.3,118c0.6,0.6,1.8,1.1,1.5,1.9c-0.3,0.8-1.5,0.6-2.4,0.7c-1.1,0.2-2.3,0-3.3-0.5
					c0-2.2,0.2-2.4,2.4-2.2C606.1,118,606.7,118.5,607.3,118z"/>
				<path class="st12" d="M637.3,107.8c0.3-0.8,0.9-1.4,1.8-1.5c0.8-0.2,1.6,0.1,2.2,0.8c1.2,1.4,2.6,2.6,4.1,3.6
					c0.5,0.4,0.5,0.4,0,0.7c-1.9-0.7-3.6-1.6-5.3-2.8C639.5,107.7,638.4,107.4,637.3,107.8z"/>
				<path class="st0" d="M606.8,106.1c0-1.1,0.4-1.5,1.4-1.1c1.4,0.5,2.6,1.6,3.1,3c0.2,0.5,0.2,1.1,0,1.6c-0.2,0.5-0.6,0.9-1.1,1.1
					c-0.5,0.3-1,0.3-1.6,0.2c-0.5-0.2-0.9-0.6-1.2-1.1c0.8-0.4,2,0,2.2-1.3c0-0.9-0.4-1.7-1.2-2.2C608,106,607.4,105.9,606.8,106.1z
					"/>
				<path class="st0" d="M638.9,119.3c-1.5,0.2-3-0.1-4.3-0.8c-0.9-0.5-0.9-1.2,0-1.7c0.9-0.5,2-0.8,3-0.6
					C638.2,117.2,639.2,118,638.9,119.3z"/>
				<path class="st0" d="M637.3,107.8c1-0.3,2,0,2.6,0.8c1.6,1.2,3.4,2.1,5.3,2.8C642.1,112.4,638.6,110.9,637.3,107.8L637.3,107.8z
					"/>
				<path class="st0" d="M647.8,118.9c-1.4-0.9-2.1-2.5-1.9-4.2c0.4-0.9,1.1-1.3,2.1-0.5c0,0.6,0.4,1.1,0.6,1.7
					C649.1,117,648.8,118.2,647.8,118.9z"/>
				<path class="st12" d="M607.3,118c-0.6,0.6-1.2,0-1.8,0c-2.2-0.2-2.4,0-2.4,2.2c-1.2-0.5-1.8-2-1.3-3.2c0.8-0.9,2.1-1.2,3.1-0.6
					C605.8,116.8,606.6,117.4,607.3,118L607.3,118z"/>
				<path class="st0" d="M643.5,119.2c-0.9-0.2-1.7-0.6-2.2-1.3c-0.6-0.7-1.3-1.5-0.6-2.4c0.3-0.4,0.8-0.6,1.3-0.6s1,0.2,1.3,0.6
					C643.9,116.7,644,118,643.5,119.2z"/>
				<path class="st12" d="M603.6,104.4c-0.7,2-0.5,4.1,0.6,5.9c0.2,0.2,0.3,0.5,0.3,0.8c-1.3-0.2-2.4-1.2-2.8-2.4
					c-0.4-1.2-0.2-2.6,0.7-3.6C602.7,104.7,603,104.3,603.6,104.4z"/>
				<path class="st12" d="M606.8,106.1c0.6-0.2,1.2-0.1,1.7,0.2c0.8,0.5,1.2,1.3,1.2,2.2c-0.2,1.1-1.4,0.9-2.2,1.3
					C606.9,108.6,606.6,107.3,606.8,106.1L606.8,106.1z"/>
				<path class="st12" d="M647.8,118.9c0.9-0.7,1.3-1.9,0.8-3c-0.2-0.6-0.6-1.1-0.6-1.7c0.9,0.7,1.8,1.4,2.5,2.3
					c0.3,0.3,0.4,0.8,0.3,1.2c-0.1,0.4-0.4,0.8-0.8,1C649.4,119.3,648.6,120,647.8,118.9z"/>
				<path class="st12" d="M611.5,116.3c-0.9-0.2-1.9-0.3-2.8-0.3c-0.8,0-1.1,0.4-0.9,1.1c-0.8-0.5-1.6-1.1-2.2-1.8
					C607.5,113.8,608.6,114,611.5,116.3z"/>
				<path class="st12" d="M648.6,109.6c0-1.3-0.9-1.7-1.9-2.1c-1-0.4-2-0.8-1.2-2.2c1.7-0.1,3.3,1,3.8,2.6
					C649.5,108.7,649.5,109.4,648.6,109.6z"/>
				<path class="st0" d="M615.7,107.4c0.5-0.1,0.9,0.1,1.2,0.5c0.6,0.5,0.5,1-0.2,1.2c-1,0.3-2.1,0.3-3.1,0c-0.8,0-0.9-0.8-0.9-1.5
					c0-0.7,0-1.1,0.8-1.1c-0.1,0.8,0.5,1.5,1.2,1.6C615.4,108.3,615.6,108,615.7,107.4z"/>
				<path class="st12" d="M614.9,113.8c-1.9,0-2.1,0.5-1.5,2.7c-0.8-0.4-1.6-0.9-2.3-1.6c-0.9-0.8-0.5-1.3,0.4-1.5
					C612.6,112.9,613.9,113.1,614.9,113.8L614.9,113.8z"/>
				<path class="st12" d="M625.6,111.1c-1.6,0-2.1,0.6-2.4,2.4c-0.1-0.1-0.2-0.1-0.3-0.2c-0.6-0.7-1.9-1.3-0.7-2.5
					C623.2,109.9,624.7,110.1,625.6,111.1L625.6,111.1z"/>
				<path class="st12" d="M620.2,111.9c0,0-0.3,0.3-0.4,0.3c-1.9,0.9-1.9,0.8-1.5,2.9h-0.2c-0.7-0.8-1.9-1.4-1.2-2.8
					C617.4,111,618.8,111.3,620.2,111.9z"/>
				<path class="st12" d="M637.2,109.9c-0.7,0-1.4-0.2-1.9-0.6c-0.9-0.6-1.9-0.7-2.9-0.4c0.4-0.7,1.1-1.2,1.9-1.3
					c0.8-0.1,1.6,0.2,2.1,0.8C636.7,108.9,637,109.4,637.2,109.9z"/>
				<path class="st12" d="M631.3,109.9h-0.6c-1.7-0.4-1.8-0.4-2.9,1.7c-0.5-0.7-1.4-1.3-0.4-2.2
					C628.6,108.6,630.3,108.8,631.3,109.9L631.3,109.9z"/>
				<path class="st12" d="M643.5,119.2c0.5-1.2,0.5-2.5,0-3.8c1,0.7,1.7,1.8,1.9,3C645.6,119.4,645,119.6,643.5,119.2z"/>
				<path class="st12" d="M638.9,119.3c0.3-1.3-0.6-2.1-1.3-3c1-0.1,1.9,0.5,2.1,1.5C640,118.5,639.9,119.2,638.9,119.3z"/>
				<path class="st12" d="M615.7,107.4c0,0.6-0.4,0.9-1,0.8c-0.8-0.1-1.3-0.8-1.2-1.6C614.3,106.4,615.2,106.7,615.7,107.4z"/>
				<path class="st13" d="M606.2,95.4c0,0.1,0,0.2,0,0.3l0,0V95.4L606.2,95.4z"/>
				<path class="st12" d="M604.5,111.1l0.4,0.3C604.7,111.4,604.5,111.4,604.5,111.1z"/>
				<path class="st12" d="M620.7,126.4c0.7,0.3,0.5,0.9,0.7,1.4c0.1,0.2,0,0.3-0.1,0.5c-0.1,0.1-0.3,0.2-0.4,0.1c-0.4,0-1-0.4-0.9-1
					C620,126.7,620.3,126.7,620.7,126.4z"/>
				<path class="st12" d="M632.9,71.7c0,7.5-0.7,15-2,22.4c-0.1,1.1-0.6,2.2-1.2,3c-0.5,0.7-1,0.8-1.7,0c-1.2-1.3-2.1-2.8-2.8-4.5
					c-2.4-5.4-4.5-11.1-7.2-16.4c-1.2-2.4-2.5-4.7-4-6.9c-2.4-4-2-9,1-12.5c1.6-1.7,3.3-3.4,5.1-5c1.1-1.1,2.5-1.8,4-2.2
					c2.5-0.2,4.8,1.2,5.7,3.5C632.2,59.1,633.2,65.4,632.9,71.7z"/>
				<path class="st0" d="M696.1,194.3c-1.4-2.2-3.5-3.9-5.6-5.4c-0.7-0.5-0.9-0.3-0.9,0.5c0,0.3,0,0.6,0,0.8
					c0.5,4.6,0.3,9.2-0.6,13.7c-1.2,6.7-3.9,13-7.9,18.6c-3.8,5.1-8.9,9.2-14.7,11.9c-0.8,0.1-1.6,0.4-2.4,0.8
					c-1.6,0.8-3.3,1.4-5.1,1.9c-4.1,1.2-8.3,1.8-12.6,2c-5.4,0.3-10.9,0.1-16.2-0.7c-8-1.1-15.7-4.1-22.3-8.7
					c-5.2-3.5-9.5-8.2-12.5-13.7c-0.6-1.1-1.2-2.2-1.8-3.4c0.2,8.3,3,16.3,7.9,22.9c-16.1-8.4-26.5-20.9-27.9-39.5v-1.5
					c0-0.1,0-0.2,0-0.3c-1-12,3.1-23.9,11.1-32.9c0,0.6-1.4,11.3,2.3,22.7c0.3,1.2,0.8,2.4,1.6,3.4c0-7.6,5.4-27.9,12.5-39.2
					c4.3-6.9,12.5-12.3,13.5-12.7c2.4-0.8,4.2,0.3,4,2.3c-0.4,2.5-0.6,5.1-0.5,7.7c0,3,0,6,0,9.1h2c0-2.5,1.8-4.3,2.6-6.6
					c0.9-2,1.9-3.9,3-5.8c1.6-3.2,3.8-6.1,6.4-8.5c1.6-1.9,4.1-2.8,6.5-2.3c2,0.5,3.8,1.5,5.3,3c4.4,4.5,7.9,9.8,10.5,15.5
					c0.3,0.7,0.7,1.3,1.3,1.9c0.1-0.8,0.1-1.6,0-2.3c-0.4-3.7,0-7.4,1.1-10.9c0.6-2.2,1.3-2.4,3-0.8c2.2,2,4.2,4.1,6,6.3
					c0.4,0.7,1,1.2,1.7,1.6c0-0.5-0.2-1-0.4-1.4c-1.8-3.6-4-7-6.5-10.1c-0.2-0.3-0.8-0.5-0.3-1c-3.4-3.5-7.4-6.4-11.9-8.6
					c-0.4,0-0.8-0.6-1.1-0.3s0,0.8,0.2,1.1c1.9,4.7,3.5,9.6,4.9,14.5c0.7,2.4,0.8,3,0.5,4l-0.3-0.5c-1.8-4.1-3.9-8.1-6.3-11.9
					c-1.9-3.4-4.6-6.3-7.9-8.4c-1.4-0.8-3.1-1.1-4.7-0.8c-2.6,0.6-4.9,2.2-6.3,4.5c-3.1,4.5-5.2,9.6-6.3,15
					c-0.3,1.4-0.6,2.8-0.9,4.4c-0.3-1,0.2-1.8,0.2-2.6c0-4.7,0.5-9.3,1.5-13.9c0.9-4.5-1.8-7-6.3-5.9c-2.2,0.6-4.3,1.7-6,3.1
					c-5.3,4.2-9.7,9.4-13,15.2c-1.3,2.1-2.4,4-4,6.5c2.2-8.9,6.5-17.2,12.6-24.1c-4.2,2-8.2,4.4-11.9,7.3c0,0-4.9,5.1-9.7,10.8
					c-4,4.7-8.1,10.1-8.6,10.5c-0.3,0.2-0.3,0.5-0.2,0.8c0.2,0.4,0.6,0,0.9,0l8.6-1.3c0.3-0.1,0.6-0.1,0.9,0c0,1-1,1.4-1.7,2
					c-1.9,1.7-3.8,3.4-5.5,5.3c-3,3.2-6,6.4-8.7,9.8c-1.7,2.1-3.5,4.2-5,6.5c-12.3,19.2-15.7,31.4-16.1,38
					c-1.6,26.7,30,40,50.5,43.1c7.5,1.1,16.1-1.4,17.4-1.9c1.1-0.4,1.1-0.8,0.3-1.7c-2-2.2-3.9-4.7-5.4-7.3c0.5,0.2,0.9,0.4,1.3,0.8
					c0.4,0.4,0.8,0.8,1.3,1.1c6,4.2,12.8,7.2,20,9c4.6,1.2,9.3,1.8,14.1,1.9c14.8,1,29.5-2.4,42.4-9.8c0.8-0.3,1.5-0.6,2.1-1.1
					l2.8-2.1l0.8-0.7c0.4-0.1,0.7-0.3,1-0.6c0-0.3,0.4-0.3,0.7-0.4c0-0.4,0.2-0.8,0.5-1.1C700.8,239.6,711.6,217.9,696.1,194.3z"/>
				<path id="Rectangle-Copy-40" class="st5" d="M618.7,254.1c0,1.9-27.2,11.9-33.6,7.9c-9.6-6-6-6.2-15.8-15.1
					c-9.8-8.9-13.1-13.6-3.7-8.2C572,242.3,591.7,254.1,618.7,254.1z"/>
				<path id="Rectangle-Copy-41" class="st5" d="M704.1,214c0.9,0.9-0.2,29.6-3.8,33.5c-5.3,5.9-4.6,2.5-11.4,7.2
					c-6.8,4.7-10,5.6-5-0.4C687.2,250.3,697.9,238,704.1,214z"/>
			</g>
		</g>
	</g>
</g>
<g id="Layer_2">
</g>
<g id="Layer_3">
</g>
<g id="Layer_1">
	<g>
		<rect x="60" y="132" class="st1" width="440.8" height="121.2"/>
		<path class="st0" d="M69.1,144.7c-1.2,0.3-2.3,0.4-3.3,0.4c-1,0-1.8-0.1-2.4-0.4c-0.6-0.3-1.1-0.7-1.4-1.3c-0.3-0.6-0.6-1.2-0.7-2
			c-0.1-0.7-0.2-1.7-0.2-2.8c0-1.1,0.1-2,0.2-2.8s0.4-1.4,0.7-2c0.3-0.6,0.8-1,1.4-1.3c0.6-0.3,1.4-0.4,2.3-0.4s2.1,0.1,3.4,0.4
			l-0.1,1.2c-1.2-0.2-2.3-0.3-3.2-0.3c-1.3,0-2.2,0.4-2.6,1.2c-0.4,0.8-0.6,2.1-0.6,4c0,0.9,0,1.7,0.1,2.3c0.1,0.6,0.2,1.1,0.5,1.6
			c0.2,0.5,0.6,0.8,1,1c0.4,0.2,1.1,0.3,1.9,0.3c0.8,0,1.8-0.1,3-0.3L69.1,144.7z"/>
		<path class="st0" d="M70.5,140.4c0-1.6,0.3-2.8,0.9-3.6c0.6-0.7,1.6-1.1,3-1.1c1.4,0,2.4,0.4,3,1.1c0.6,0.7,0.9,1.9,0.9,3.6
			c0,1.6-0.3,2.8-0.8,3.6s-1.6,1.1-3,1.1c-1.5,0-2.5-0.4-3-1.1C70.8,143.2,70.5,142,70.5,140.4z M71.9,140.4c0,1.3,0.2,2.2,0.5,2.8
			c0.3,0.5,1,0.8,2,0.8c1,0,1.7-0.3,2-0.8c0.3-0.5,0.5-1.4,0.5-2.8c0-1.3-0.2-2.2-0.5-2.7s-1-0.7-1.9-0.7c-0.9,0-1.6,0.2-1.9,0.7
			S71.9,139.1,71.9,140.4z"/>
		<path class="st0" d="M81.8,144.9h-1.4v-9h1.3v0.6c1-0.5,1.9-0.8,2.8-0.8c1.2,0,2,0.3,2.4,1s0.6,1.8,0.6,3.5v4.8h-1.3v-4.7
			c0-1.2-0.1-2.1-0.4-2.6s-0.8-0.7-1.6-0.7c-0.4,0-0.8,0.1-1.2,0.2c-0.4,0.1-0.8,0.2-1,0.3l-0.3,0.2V144.9z"/>
		<path class="st0" d="M94.7,137.1h-2.9v4.3c0,1,0.1,1.7,0.2,2s0.5,0.5,1.1,0.5l1.6-0.1l0.1,1.1c-0.8,0.1-1.4,0.2-1.8,0.2
			c-0.9,0-1.6-0.2-1.9-0.7c-0.4-0.5-0.5-1.3-0.5-2.6v-4.7h-1.3v-1.2h1.3v-2.8h1.3v2.8h2.9V137.1z"/>
		<path class="st0" d="M96.3,144.9v-9h1.3v1.2c1-0.7,2.1-1.2,3.3-1.4v1.4c-0.5,0.1-1,0.2-1.6,0.5c-0.5,0.2-1,0.4-1.3,0.5l-0.5,0.2
			v6.6H96.3z"/>
		<path class="st0" d="M102.6,133.9v-1.6h1.4v1.6H102.6z M102.6,144.9v-9h1.4v9H102.6z"/>
		<path class="st0" d="M110.5,135.7c1.2,0,2.1,0.3,2.5,1c0.5,0.7,0.7,1.9,0.7,3.6c0,1.7-0.3,2.9-0.9,3.6c-0.6,0.7-1.7,1.1-3.3,1.1
			c-0.5,0-1.3,0-2.5-0.1l-0.5-0.1V132h1.3v4.4C108.8,136,109.6,135.7,110.5,135.7z M109.5,143.9c1.2,0,2-0.3,2.3-0.8
			c0.4-0.5,0.6-1.4,0.6-2.7c0-1.3-0.2-2.2-0.5-2.7s-0.8-0.8-1.6-0.8c-0.7,0-1.4,0.1-2.1,0.4l-0.4,0.1v6.3
			C108.6,143.9,109.2,143.9,109.5,143.9z"/>
		<path class="st0" d="M121.6,135.9h1.4v9h-1.4v-0.6c-0.9,0.5-1.8,0.8-2.7,0.8c-1.2,0-2-0.3-2.4-1c-0.4-0.6-0.6-1.8-0.6-3.5v-4.7
			h1.4v4.7c0,1.3,0.1,2.2,0.3,2.6c0.2,0.4,0.7,0.7,1.5,0.7c0.4,0,0.8-0.1,1.2-0.2c0.4-0.1,0.7-0.2,0.9-0.3l0.3-0.2V135.9z"/>
		<path class="st0" d="M130.2,137.1h-2.9v4.3c0,1,0.1,1.7,0.2,2s0.5,0.5,1.1,0.5l1.6-0.1l0.1,1.1c-0.8,0.1-1.4,0.2-1.8,0.2
			c-0.9,0-1.6-0.2-1.9-0.7c-0.4-0.5-0.5-1.3-0.5-2.6v-4.7h-1.3v-1.2h1.3v-2.8h1.3v2.8h2.9V137.1z"/>
		<path class="st0" d="M138,143.8l0.5-0.1l0,1.1c-1.4,0.2-2.5,0.3-3.5,0.3c-1.3,0-2.2-0.4-2.8-1.1c-0.5-0.7-0.8-1.9-0.8-3.5
			c0-3.2,1.3-4.7,3.8-4.7c1.2,0,2.1,0.3,2.7,1s0.9,1.7,0.9,3.2l-0.1,1h-5.9c0,1,0.2,1.7,0.5,2.2c0.4,0.5,1,0.7,1.9,0.7
			S137,143.9,138,143.8z M137.5,139.9c0-1.1-0.2-1.9-0.5-2.3s-0.9-0.7-1.7-0.7s-1.4,0.2-1.8,0.7c-0.4,0.5-0.6,1.2-0.6,2.3H137.5z"/>
		<path class="st0" d="M149.6,137.1h-2.9v4.3c0,1,0.1,1.7,0.2,2s0.5,0.5,1.1,0.5l1.6-0.1l0.1,1.1c-0.8,0.1-1.4,0.2-1.8,0.2
			c-0.9,0-1.6-0.2-1.9-0.7c-0.4-0.5-0.5-1.3-0.5-2.6v-4.7h-1.3v-1.2h1.3v-2.8h1.3v2.8h2.9V137.1z"/>
		<path class="st0" d="M150.8,140.4c0-1.6,0.3-2.8,0.9-3.6c0.6-0.7,1.6-1.1,3-1.1c1.4,0,2.4,0.4,3,1.1c0.6,0.7,0.9,1.9,0.9,3.6
			c0,1.6-0.3,2.8-0.8,3.6s-1.6,1.1-3,1.1c-1.5,0-2.5-0.4-3-1.1C151.1,143.2,150.8,142,150.8,140.4z M152.2,140.4
			c0,1.3,0.2,2.2,0.5,2.8c0.3,0.5,1,0.8,2,0.8c1,0,1.7-0.3,2-0.8c0.3-0.5,0.5-1.4,0.5-2.8c0-1.3-0.2-2.2-0.5-2.7s-1-0.7-1.9-0.7
			c-0.9,0-1.6,0.2-1.9,0.7S152.2,139.1,152.2,140.4z"/>
		<path class="st0" d="M163.7,146.2V145c0.9,0,1.4-0.1,1.7-0.3s0.4-0.8,0.4-1.6v-10.5h1.4l0,10.7c0,1-0.2,1.7-0.5,2.2
			c-0.3,0.4-0.8,0.6-1.6,0.7C164.7,146.2,164.2,146.2,163.7,146.2z"/>
		<path class="st0" d="M169.4,140.4c0-1.6,0.3-2.8,0.9-3.6c0.6-0.7,1.6-1.1,3-1.1c1.4,0,2.4,0.4,3,1.1c0.6,0.7,0.9,1.9,0.9,3.6
			c0,1.6-0.3,2.8-0.8,3.6s-1.6,1.1-3,1.1c-1.5,0-2.5-0.4-3-1.1C169.7,143.2,169.4,142,169.4,140.4z M170.8,140.4
			c0,1.3,0.2,2.2,0.5,2.8c0.3,0.5,1,0.8,2,0.8c1,0,1.7-0.3,2-0.8c0.3-0.5,0.5-1.4,0.5-2.8c0-1.3-0.2-2.2-0.5-2.7s-1-0.7-1.9-0.7
			c-0.9,0-1.6,0.2-1.9,0.7S170.8,139.1,170.8,140.4z"/>
		<path class="st0" d="M178.3,135.9h1.3l2.3,7.8h0.6l2.3-7.8h1.4l-3.7,13H181l1.2-4h-1.3L178.3,135.9z"/>
		<path class="st0" d="M190.5,137c-1.3,0-2,0.5-2,1.4c0,0.4,0.1,0.7,0.4,0.9s1,0.4,2.1,0.5c1.1,0.2,1.8,0.4,2.3,0.8
			c0.4,0.3,0.7,1,0.7,1.9s-0.3,1.6-0.9,2c-0.6,0.4-1.5,0.6-2.6,0.6c-0.7,0-1.6-0.1-2.6-0.3l-0.5-0.1l0.1-1.2
			c1.4,0.2,2.4,0.3,3.1,0.3c0.7,0,1.2-0.1,1.6-0.3c0.4-0.2,0.5-0.6,0.5-1.1c0-0.5-0.2-0.9-0.5-1.1c-0.3-0.2-1-0.4-2.1-0.5
			c-1.1-0.2-1.8-0.4-2.3-0.7c-0.4-0.3-0.7-0.9-0.7-1.8c0-0.9,0.3-1.5,0.9-1.9s1.4-0.6,2.3-0.6c0.7,0,1.6,0.1,2.8,0.3l0.5,0.1l0,1.2
			C192.3,137,191.3,137,190.5,137z"/>
		<path class="st0" d="M200.7,137.1h-2.9v4.3c0,1,0.1,1.7,0.2,2s0.5,0.5,1.1,0.5l1.6-0.1l0.1,1.1c-0.8,0.1-1.4,0.2-1.8,0.2
			c-0.9,0-1.6-0.2-1.9-0.7c-0.4-0.5-0.5-1.3-0.5-2.6v-4.7h-1.3v-1.2h1.3v-2.8h1.3v2.8h2.9V137.1z"/>
		<path class="st0" d="M202.4,144.9v-9h1.3v1.2c1-0.7,2.1-1.2,3.3-1.4v1.4c-0.5,0.1-1,0.2-1.6,0.5c-0.5,0.2-1,0.4-1.3,0.5l-0.5,0.2
			v6.6H202.4z"/>
		<path class="st0" d="M214.5,143.8l0.5-0.1l0,1.1c-1.4,0.2-2.5,0.3-3.5,0.3c-1.3,0-2.2-0.4-2.8-1.1c-0.5-0.7-0.8-1.9-0.8-3.5
			c0-3.2,1.3-4.7,3.8-4.7c1.2,0,2.1,0.3,2.7,1s0.9,1.7,0.9,3.2l-0.1,1h-5.9c0,1,0.2,1.7,0.5,2.2c0.4,0.5,1,0.7,1.9,0.7
			S213.6,143.9,214.5,143.8z M214.1,139.9c0-1.1-0.2-1.9-0.5-2.3s-0.9-0.7-1.7-0.7s-1.4,0.2-1.8,0.7c-0.4,0.5-0.6,1.2-0.6,2.3H214.1
			z"/>
		<path class="st0" d="M223.9,138.6v4.6c0,0.4,0.4,0.7,1,0.8l-0.1,1.1c-0.9,0-1.7-0.2-2.1-0.7c-1.1,0.5-2.2,0.7-3.2,0.7
			c-0.8,0-1.5-0.2-1.9-0.7c-0.4-0.5-0.6-1.1-0.6-2s0.2-1.5,0.7-1.9c0.4-0.4,1.1-0.7,2.1-0.8l2.8-0.3v-0.8c0-0.6-0.1-1-0.4-1.3
			c-0.3-0.3-0.6-0.4-1.1-0.4c-1,0-2,0.1-3,0.2l-0.6,0.1l-0.1-1c1.3-0.3,2.5-0.4,3.5-0.4s1.8,0.2,2.2,0.7
			C223.6,136.9,223.9,137.6,223.9,138.6z M218.3,142.3c0,1.1,0.5,1.7,1.4,1.7c0.8,0,1.6-0.1,2.4-0.4l0.4-0.1v-3l-2.7,0.3
			c-0.5,0-0.9,0.2-1.2,0.5S218.3,141.8,218.3,142.3z"/>
		<path class="st0" d="M227.9,144.9h-1.4v-9h1.3v0.6c0.9-0.5,1.8-0.8,2.6-0.8c1.1,0,1.9,0.3,2.3,0.9c0.4-0.2,0.9-0.5,1.5-0.6
			c0.6-0.2,1.2-0.3,1.7-0.3c1.2,0,2,0.3,2.4,1c0.4,0.6,0.6,1.8,0.6,3.5v4.8h-1.3v-4.7c0-1.2-0.1-2.1-0.4-2.6s-0.8-0.7-1.5-0.7
			c-0.4,0-0.8,0.1-1.2,0.2s-0.7,0.2-1,0.3l-0.3,0.2c0.2,0.4,0.2,1.3,0.2,2.6v4.7h-1.3v-4.6c0-1.3-0.1-2.2-0.4-2.6
			c-0.2-0.5-0.7-0.7-1.5-0.7c-0.4,0-0.8,0.1-1.2,0.2s-0.7,0.2-0.9,0.3l-0.3,0.2V144.9z"/>
		<path class="st0" d="M240.9,147.1l0.8-4.1h1.5l-1.2,4.1H240.9z"/>
		<path class="st0" d="M255.9,138.6v4.6c0,0.4,0.4,0.7,1,0.8l-0.1,1.1c-0.9,0-1.7-0.2-2.1-0.7c-1.1,0.5-2.2,0.7-3.2,0.7
			c-0.8,0-1.5-0.2-1.9-0.7c-0.4-0.5-0.6-1.1-0.6-2s0.2-1.5,0.7-1.9c0.4-0.4,1.1-0.7,2.1-0.8l2.8-0.3v-0.8c0-0.6-0.1-1-0.4-1.3
			c-0.3-0.3-0.6-0.4-1.1-0.4c-1,0-2,0.1-3,0.2l-0.6,0.1l-0.1-1c1.3-0.3,2.5-0.4,3.5-0.4s1.8,0.2,2.2,0.7
			C255.7,136.9,255.9,137.6,255.9,138.6z M250.4,142.3c0,1.1,0.5,1.7,1.4,1.7c0.8,0,1.6-0.1,2.4-0.4l0.4-0.1v-3l-2.7,0.3
			c-0.5,0-0.9,0.2-1.2,0.5S250.4,141.8,250.4,142.3z"/>
		<path class="st0" d="M259.9,144.9h-1.4v-9h1.3v0.6c1-0.5,1.9-0.8,2.8-0.8c1.2,0,2,0.3,2.4,1s0.6,1.8,0.6,3.5v4.8h-1.3v-4.7
			c0-1.2-0.1-2.1-0.4-2.6s-0.8-0.7-1.6-0.7c-0.4,0-0.8,0.1-1.2,0.2c-0.4,0.1-0.8,0.2-1,0.3l-0.3,0.2V144.9z"/>
		<path class="st0" d="M275.2,132v12.9h-1.3v-0.6c-0.9,0.5-1.8,0.8-2.7,0.8c-0.5,0-0.9-0.1-1.3-0.2c-0.4-0.1-0.7-0.3-1-0.6
			c-0.6-0.6-1-1.8-1-3.6s0.3-3,0.9-3.8c0.6-0.8,1.5-1.2,2.9-1.2c0.7,0,1.4,0.1,2.2,0.2v-4H275.2z M270.5,143.8
			c0.2,0.1,0.5,0.1,0.8,0.1c0.3,0,0.7-0.1,1.2-0.2c0.4-0.1,0.8-0.2,1-0.3l0.4-0.2v-6.1c-0.8-0.1-1.5-0.2-2.1-0.2
			c-0.9,0-1.5,0.3-1.9,0.9c-0.4,0.6-0.5,1.5-0.5,2.7c0,1.4,0.2,2.3,0.6,2.8C270.1,143.5,270.3,143.7,270.5,143.8z"/>
		<path class="st0" d="M287.8,143.8l0.5-0.1l0,1.1c-1.4,0.2-2.5,0.3-3.5,0.3c-1.3,0-2.2-0.4-2.8-1.1c-0.5-0.7-0.8-1.9-0.8-3.5
			c0-3.2,1.3-4.7,3.8-4.7c1.2,0,2.1,0.3,2.7,1s0.9,1.7,0.9,3.2l-0.1,1h-5.9c0,1,0.2,1.7,0.5,2.2c0.4,0.5,1,0.7,1.9,0.7
			S286.9,143.9,287.8,143.8z M287.4,139.9c0-1.1-0.2-1.9-0.5-2.3s-0.9-0.7-1.7-0.7s-1.4,0.2-1.8,0.7c-0.4,0.5-0.6,1.2-0.6,2.3H287.4
			z"/>
		<path class="st0" d="M297.2,138.6v4.6c0,0.4,0.4,0.7,1,0.8l-0.1,1.1c-0.9,0-1.7-0.2-2.1-0.7c-1.1,0.5-2.2,0.7-3.2,0.7
			c-0.8,0-1.5-0.2-1.9-0.7c-0.4-0.5-0.6-1.1-0.6-2s0.2-1.5,0.7-1.9c0.4-0.4,1.1-0.7,2.1-0.8l2.8-0.3v-0.8c0-0.6-0.1-1-0.4-1.3
			c-0.3-0.3-0.6-0.4-1.1-0.4c-1,0-2,0.1-3,0.2l-0.6,0.1l-0.1-1c1.3-0.3,2.5-0.4,3.5-0.4s1.8,0.2,2.2,0.7
			C296.9,136.9,297.2,137.6,297.2,138.6z M291.6,142.3c0,1.1,0.5,1.7,1.4,1.7c0.8,0,1.6-0.1,2.4-0.4l0.4-0.1v-3l-2.7,0.3
			c-0.5,0-0.9,0.2-1.2,0.5S291.6,141.8,291.6,142.3z"/>
		<path class="st0" d="M299.8,144.9v-9h1.3v1.2c1-0.7,2.1-1.2,3.3-1.4v1.4c-0.5,0.1-1,0.2-1.6,0.5c-0.5,0.2-1,0.4-1.3,0.5l-0.5,0.2
			v6.6H299.8z"/>
		<path class="st0" d="M307.4,144.9h-1.4v-9h1.3v0.6c1-0.5,1.9-0.8,2.8-0.8c1.2,0,2,0.3,2.4,1s0.6,1.8,0.6,3.5v4.8h-1.3v-4.7
			c0-1.2-0.1-2.1-0.4-2.6s-0.8-0.7-1.6-0.7c-0.4,0-0.8,0.1-1.2,0.2c-0.4,0.1-0.8,0.2-1,0.3l-0.3,0.2V144.9z"/>
		<path class="st0" d="M323.7,135.7c1.2,0,2.1,0.3,2.5,1c0.5,0.7,0.7,1.9,0.7,3.6c0,1.7-0.3,2.9-0.9,3.6c-0.6,0.7-1.7,1.1-3.3,1.1
			c-0.5,0-1.3,0-2.5-0.1l-0.5-0.1V132h1.3v4.4C321.9,136,322.8,135.7,323.7,135.7z M322.7,143.9c1.2,0,2-0.3,2.3-0.8
			c0.4-0.5,0.6-1.4,0.6-2.7c0-1.3-0.2-2.2-0.5-2.7s-0.8-0.8-1.6-0.8c-0.7,0-1.4,0.1-2.1,0.4l-0.4,0.1v6.3
			C321.8,143.9,322.3,143.9,322.7,143.9z"/>
		<path class="st0" d="M328.8,140.4c0-1.6,0.3-2.8,0.9-3.6c0.6-0.7,1.6-1.1,3-1.1c1.4,0,2.4,0.4,3,1.1c0.6,0.7,0.9,1.9,0.9,3.6
			c0,1.6-0.3,2.8-0.8,3.6s-1.6,1.1-3,1.1c-1.5,0-2.5-0.4-3-1.1C329,143.2,328.8,142,328.8,140.4z M330.1,140.4
			c0,1.3,0.2,2.2,0.5,2.8c0.3,0.5,1,0.8,2,0.8c1,0,1.7-0.3,2-0.8c0.3-0.5,0.5-1.4,0.5-2.8c0-1.3-0.2-2.2-0.5-2.7s-1-0.7-1.9-0.7
			c-0.9,0-1.6,0.2-1.9,0.7S330.1,139.1,330.1,140.4z"/>
		<path class="st0" d="M344.3,135.9h1.4v9h-1.4v-0.6c-0.9,0.5-1.8,0.8-2.7,0.8c-1.2,0-2-0.3-2.4-1c-0.4-0.6-0.6-1.8-0.6-3.5v-4.7
			h1.4v4.7c0,1.3,0.1,2.2,0.3,2.6c0.2,0.4,0.7,0.7,1.5,0.7c0.4,0,0.8-0.1,1.2-0.2c0.4-0.1,0.7-0.2,0.9-0.3l0.3-0.2V135.9z"/>
		<path class="st0" d="M349.6,144.9h-1.4v-9h1.3v0.6c1-0.5,1.9-0.8,2.8-0.8c1.2,0,2,0.3,2.4,1s0.6,1.8,0.6,3.5v4.8H354v-4.7
			c0-1.2-0.1-2.1-0.4-2.6s-0.8-0.7-1.6-0.7c-0.4,0-0.8,0.1-1.2,0.2c-0.4,0.1-0.8,0.2-1,0.3l-0.3,0.2V144.9z"/>
		<path class="st0" d="M362.5,137.1h-2.9v4.3c0,1,0.1,1.7,0.2,2s0.5,0.5,1.1,0.5l1.6-0.1l0.1,1.1c-0.8,0.1-1.4,0.2-1.8,0.2
			c-0.9,0-1.6-0.2-1.9-0.7c-0.4-0.5-0.5-1.3-0.5-2.6v-4.7H357v-1.2h1.3v-2.8h1.3v2.8h2.9V137.1z"/>
		<path class="st0" d="M364.1,133.9v-1.6h1.4v1.6H364.1z M364.1,144.9v-9h1.4v9H364.1z"/>
		<path class="st0" d="M374.2,143.8l0.5-0.1l0,1.1c-1.4,0.2-2.5,0.3-3.5,0.3c-1.3,0-2.2-0.4-2.8-1.1c-0.5-0.7-0.8-1.9-0.8-3.5
			c0-3.2,1.3-4.7,3.8-4.7c1.2,0,2.1,0.3,2.7,1s0.9,1.7,0.9,3.2l-0.1,1h-5.9c0,1,0.2,1.7,0.5,2.2c0.4,0.5,1,0.7,1.9,0.7
			S373.3,143.9,374.2,143.8z M373.7,139.9c0-1.1-0.2-1.9-0.5-2.3s-0.9-0.7-1.7-0.7s-1.4,0.2-1.8,0.7c-0.4,0.5-0.6,1.2-0.6,2.3H373.7
			z"/>
		<path class="st0" d="M380,137c-1.3,0-2,0.5-2,1.4c0,0.4,0.1,0.7,0.4,0.9s1,0.4,2.1,0.5c1.1,0.2,1.8,0.4,2.3,0.8
			c0.4,0.3,0.7,1,0.7,1.9s-0.3,1.6-0.9,2c-0.6,0.4-1.5,0.6-2.6,0.6c-0.7,0-1.6-0.1-2.6-0.3l-0.5-0.1l0.1-1.2
			c1.4,0.2,2.4,0.3,3.1,0.3s1.2-0.1,1.6-0.3c0.4-0.2,0.5-0.6,0.5-1.1c0-0.5-0.2-0.9-0.5-1.1c-0.3-0.2-1-0.4-2.1-0.5
			c-1.1-0.2-1.8-0.4-2.3-0.7c-0.4-0.3-0.7-0.9-0.7-1.8c0-0.9,0.3-1.5,0.9-1.9s1.4-0.6,2.3-0.6c0.7,0,1.7,0.1,2.8,0.3l0.5,0.1l0,1.2
			C381.8,137,380.8,137,380,137z"/>
		<path class="st0" d="M391.2,137.1v7.8h-1.4v-7.8h-1.1v-1.2h1.1v-0.8c0-1.3,0.2-2.1,0.5-2.6s1-0.7,1.9-0.7l1.8,0.1l0,1.1
			c-0.7,0-1.2,0-1.7,0c-0.4,0-0.8,0.1-0.9,0.4c-0.2,0.3-0.3,0.8-0.3,1.7v0.8h2.6v1.2H391.2z"/>
		<path class="st0" d="M394.9,140.4c0-1.6,0.3-2.8,0.9-3.6c0.6-0.7,1.6-1.1,3-1.1c1.4,0,2.4,0.4,3,1.1c0.6,0.7,0.9,1.9,0.9,3.6
			c0,1.6-0.3,2.8-0.8,3.6c-0.6,0.7-1.6,1.1-3,1.1s-2.5-0.4-3-1.1C395.2,143.2,394.9,142,394.9,140.4z M396.3,140.4
			c0,1.3,0.2,2.2,0.5,2.8c0.3,0.5,1,0.8,2,0.8c1,0,1.7-0.3,2-0.8c0.3-0.5,0.5-1.4,0.5-2.8c0-1.3-0.2-2.2-0.5-2.7
			c-0.3-0.5-1-0.7-1.9-0.7s-1.6,0.2-1.9,0.7C396.5,138.2,396.3,139.1,396.3,140.4z"/>
		<path class="st0" d="M404.8,144.9v-9h1.3v1.2c1-0.7,2.1-1.2,3.3-1.4v1.4c-0.5,0.1-1,0.2-1.6,0.5s-1,0.4-1.3,0.5l-0.4,0.2v6.6
			H404.8z"/>
		<path class="st0" d="M414.1,135.9h1.3l2.3,7.8h0.6l2.3-7.8h1.3l-3.7,13h-1.3l1.2-4h-1.3L414.1,135.9z"/>
		<path class="st0" d="M423.1,140.4c0-1.6,0.3-2.8,0.9-3.6c0.6-0.7,1.6-1.1,3-1.1c1.4,0,2.4,0.4,3,1.1c0.6,0.7,0.9,1.9,0.9,3.6
			c0,1.6-0.3,2.8-0.8,3.6c-0.6,0.7-1.6,1.1-3,1.1s-2.5-0.4-3-1.1C423.4,143.2,423.1,142,423.1,140.4z M424.5,140.4
			c0,1.3,0.2,2.2,0.5,2.8c0.3,0.5,1,0.8,2,0.8c1,0,1.7-0.3,2-0.8c0.3-0.5,0.5-1.4,0.5-2.8c0-1.3-0.2-2.2-0.5-2.7
			c-0.3-0.5-1-0.7-1.9-0.7s-1.6,0.2-1.9,0.7C424.7,138.2,424.5,139.1,424.5,140.4z"/>
		<path class="st0" d="M438.6,135.9h1.3v9h-1.3v-0.6c-0.9,0.5-1.8,0.8-2.7,0.8c-1.2,0-2-0.3-2.4-1c-0.4-0.6-0.6-1.8-0.6-3.5v-4.7
			h1.3v4.7c0,1.3,0.1,2.2,0.3,2.6c0.2,0.4,0.7,0.7,1.5,0.7c0.4,0,0.8-0.1,1.2-0.2c0.4-0.1,0.7-0.2,0.9-0.3l0.3-0.2V135.9z"/>
		<path class="st0" d="M442.6,144.9v-9h1.3v1.2c1-0.7,2.1-1.2,3.3-1.4v1.4c-0.5,0.1-1,0.2-1.6,0.5s-1,0.4-1.3,0.5l-0.4,0.2v6.6
			H442.6z"/>
		<path class="st0" d="M452,135.9h1.4l1.8,7.8h0.3l2.1-7.7h1.4l2.1,7.7h0.3l1.8-7.8h1.4l-2.1,9h-2.3l-1.9-7l-1.9,7h-2.3L452,135.9z"
			/>
		<path class="st0" d="M466,140.4c0-1.6,0.3-2.8,0.9-3.6c0.6-0.7,1.6-1.1,3-1.1c1.4,0,2.4,0.4,3,1.1c0.6,0.7,0.9,1.9,0.9,3.6
			c0,1.6-0.3,2.8-0.8,3.6c-0.6,0.7-1.6,1.1-3,1.1s-2.5-0.4-3-1.1C466.3,143.2,466,142,466,140.4z M467.4,140.4
			c0,1.3,0.2,2.2,0.5,2.8c0.3,0.5,1,0.8,2,0.8c1,0,1.7-0.3,2-0.8c0.3-0.5,0.5-1.4,0.5-2.8c0-1.3-0.2-2.2-0.5-2.7
			c-0.3-0.5-1-0.7-1.9-0.7s-1.6,0.2-1.9,0.7C467.6,138.2,467.4,139.1,467.4,140.4z"/>
		<path class="st0" d="M475.9,144.9v-9h1.3v1.2c1-0.7,2.1-1.2,3.3-1.4v1.4c-0.5,0.1-1,0.2-1.6,0.5s-1,0.4-1.3,0.5l-0.4,0.2v6.6
			H475.9z"/>
		<path class="st0" d="M483.5,144.9h-1.4V132h1.4v7.6l1.4-0.1l2.6-3.6h1.5l-2.9,4.1l3.1,4.9h-1.5l-2.7-4.2l-1.4,0.1V144.9z"/>
	</g>
</g>
<g id="Layer_5">
</g>
</svg>
